<mxfile host="app.diagrams.net" agent="Mozilla/5.0 (X11; Ubuntu; Linux x86_64; rv:139.0) Gecko/20100101 Firefox/139.0" version="27.1.6">
  <diagram id="z6PIuTzYWFKhY83oq97V" name="Page-1">
    <mxGraphModel dx="800" dy="1209" grid="0" gridSize="10" guides="1" tooltips="1" connect="1" arrows="1" fold="1" page="0" pageScale="1" pageWidth="850" pageHeight="1100" math="0" shadow="0">
      <root>
        <mxCell id="0" />
        <mxCell id="1" parent="0" />
        <mxCell id="1PtHdJJ3ti61i-ReC4_p-39" style="edgeStyle=none;rounded=0;orthogonalLoop=1;jettySize=auto;html=1;" edge="1" parent="1" source="1PtHdJJ3ti61i-ReC4_p-40" target="1PtHdJJ3ti61i-ReC4_p-43">
          <mxGeometry relative="1" as="geometry" />
        </mxCell>
        <mxCell id="1PtHdJJ3ti61i-ReC4_p-40" value="Commit 1" style="ellipse;whiteSpace=wrap;html=1;aspect=fixed;" vertex="1" parent="1">
          <mxGeometry x="202" y="-622" width="50" height="50" as="geometry" />
        </mxCell>
        <mxCell id="1PtHdJJ3ti61i-ReC4_p-41" style="edgeStyle=none;rounded=0;orthogonalLoop=1;jettySize=auto;html=1;" edge="1" parent="1" source="1PtHdJJ3ti61i-ReC4_p-43" target="1PtHdJJ3ti61i-ReC4_p-48">
          <mxGeometry relative="1" as="geometry" />
        </mxCell>
        <mxCell id="1PtHdJJ3ti61i-ReC4_p-42" style="edgeStyle=none;rounded=0;orthogonalLoop=1;jettySize=auto;html=1;entryX=0;entryY=0.5;entryDx=0;entryDy=0;" edge="1" parent="1" source="1PtHdJJ3ti61i-ReC4_p-43" target="1PtHdJJ3ti61i-ReC4_p-45">
          <mxGeometry relative="1" as="geometry" />
        </mxCell>
        <mxCell id="1PtHdJJ3ti61i-ReC4_p-43" value="Commit 2" style="ellipse;whiteSpace=wrap;html=1;aspect=fixed;" vertex="1" parent="1">
          <mxGeometry x="332" y="-622" width="50" height="50" as="geometry" />
        </mxCell>
        <mxCell id="1PtHdJJ3ti61i-ReC4_p-44" style="edgeStyle=none;rounded=0;orthogonalLoop=1;jettySize=auto;html=1;exitX=1;exitY=0.5;exitDx=0;exitDy=0;" edge="1" parent="1" source="1PtHdJJ3ti61i-ReC4_p-45" target="1PtHdJJ3ti61i-ReC4_p-46">
          <mxGeometry relative="1" as="geometry" />
        </mxCell>
        <mxCell id="1PtHdJJ3ti61i-ReC4_p-45" value="Commit 3" style="ellipse;whiteSpace=wrap;html=1;aspect=fixed;" vertex="1" parent="1">
          <mxGeometry x="452" y="-712" width="50" height="50" as="geometry" />
        </mxCell>
        <mxCell id="1PtHdJJ3ti61i-ReC4_p-46" value="Commit 4" style="ellipse;whiteSpace=wrap;html=1;aspect=fixed;" vertex="1" parent="1">
          <mxGeometry x="582" y="-712" width="50" height="50" as="geometry" />
        </mxCell>
        <mxCell id="1PtHdJJ3ti61i-ReC4_p-47" style="edgeStyle=none;rounded=0;orthogonalLoop=1;jettySize=auto;html=1;" edge="1" parent="1" source="1PtHdJJ3ti61i-ReC4_p-48" target="1PtHdJJ3ti61i-ReC4_p-49">
          <mxGeometry relative="1" as="geometry" />
        </mxCell>
        <mxCell id="1PtHdJJ3ti61i-ReC4_p-48" value="Commit 5" style="ellipse;whiteSpace=wrap;html=1;aspect=fixed;" vertex="1" parent="1">
          <mxGeometry x="452" y="-622" width="50" height="50" as="geometry" />
        </mxCell>
        <mxCell id="1PtHdJJ3ti61i-ReC4_p-49" value="Commit 6" style="ellipse;whiteSpace=wrap;html=1;aspect=fixed;" vertex="1" parent="1">
          <mxGeometry x="582" y="-622" width="50" height="50" as="geometry" />
        </mxCell>
        <mxCell id="1PtHdJJ3ti61i-ReC4_p-50" value="main" style="text;strokeColor=none;align=center;fillColor=none;html=1;verticalAlign=middle;whiteSpace=wrap;rounded=0;" vertex="1" parent="1">
          <mxGeometry x="632" y="-612" width="60" height="30" as="geometry" />
        </mxCell>
        <mxCell id="1PtHdJJ3ti61i-ReC4_p-51" value="branch-1" style="text;whiteSpace=wrap;html=1;" vertex="1" parent="1">
          <mxGeometry x="642" y="-702" width="60" height="40" as="geometry" />
        </mxCell>
        <mxCell id="1PtHdJJ3ti61i-ReC4_p-52" value="&quot;Created new.txt&quot;" style="ellipse;whiteSpace=wrap;html=1;aspect=fixed;" vertex="1" parent="1">
          <mxGeometry x="276" y="-417" width="60" height="60" as="geometry" />
        </mxCell>
        <mxCell id="1PtHdJJ3ti61i-ReC4_p-53" value="&lt;b&gt;main&lt;/b&gt;" style="text;strokeColor=none;align=center;fillColor=none;html=1;verticalAlign=middle;whiteSpace=wrap;rounded=0;" vertex="1" parent="1">
          <mxGeometry x="338" y="-402" width="60" height="30" as="geometry" />
        </mxCell>
        <mxCell id="1PtHdJJ3ti61i-ReC4_p-54" style="edgeStyle=orthogonalEdgeStyle;rounded=0;orthogonalLoop=1;jettySize=auto;html=1;" edge="1" parent="1" source="1PtHdJJ3ti61i-ReC4_p-56" target="1PtHdJJ3ti61i-ReC4_p-60">
          <mxGeometry relative="1" as="geometry" />
        </mxCell>
        <mxCell id="1PtHdJJ3ti61i-ReC4_p-55" style="edgeStyle=orthogonalEdgeStyle;rounded=0;orthogonalLoop=1;jettySize=auto;html=1;exitX=1;exitY=0;exitDx=0;exitDy=0;" edge="1" parent="1" source="1PtHdJJ3ti61i-ReC4_p-56" target="1PtHdJJ3ti61i-ReC4_p-58">
          <mxGeometry relative="1" as="geometry">
            <Array as="points">
              <mxPoint x="301" y="407" />
            </Array>
          </mxGeometry>
        </mxCell>
        <mxCell id="1PtHdJJ3ti61i-ReC4_p-56" value="&quot;Created new.txt&quot;" style="ellipse;whiteSpace=wrap;html=1;aspect=fixed;" vertex="1" parent="1">
          <mxGeometry x="250" y="467" width="60" height="60" as="geometry" />
        </mxCell>
        <mxCell id="1PtHdJJ3ti61i-ReC4_p-57" value="main" style="text;strokeColor=none;align=center;fillColor=none;html=1;verticalAlign=middle;whiteSpace=wrap;rounded=0;fontStyle=1" vertex="1" parent="1">
          <mxGeometry x="410" y="482" width="60" height="30" as="geometry" />
        </mxCell>
        <mxCell id="1PtHdJJ3ti61i-ReC4_p-58" value="&quot;Edited new.txt&quot;" style="ellipse;whiteSpace=wrap;html=1;aspect=fixed;" vertex="1" parent="1">
          <mxGeometry x="355" y="377" width="60" height="60" as="geometry" />
        </mxCell>
        <mxCell id="1PtHdJJ3ti61i-ReC4_p-59" value="my-branch" style="text;strokeColor=none;align=center;fillColor=none;html=1;verticalAlign=middle;whiteSpace=wrap;rounded=0;" vertex="1" parent="1">
          <mxGeometry x="420" y="392" width="60" height="30" as="geometry" />
        </mxCell>
        <mxCell id="1PtHdJJ3ti61i-ReC4_p-60" value="&quot;Created new 2.txt&quot;" style="ellipse;whiteSpace=wrap;html=1;aspect=fixed;" vertex="1" parent="1">
          <mxGeometry x="355" y="467" width="60" height="60" as="geometry" />
        </mxCell>
        <mxCell id="1PtHdJJ3ti61i-ReC4_p-61" style="edgeStyle=orthogonalEdgeStyle;rounded=0;orthogonalLoop=1;jettySize=auto;html=1;exitX=1;exitY=0;exitDx=0;exitDy=0;" edge="1" parent="1" source="1PtHdJJ3ti61i-ReC4_p-62" target="1PtHdJJ3ti61i-ReC4_p-63">
          <mxGeometry relative="1" as="geometry">
            <Array as="points">
              <mxPoint x="286" y="47" />
            </Array>
          </mxGeometry>
        </mxCell>
        <mxCell id="1PtHdJJ3ti61i-ReC4_p-62" value="&quot;Created new.txt&quot;" style="ellipse;whiteSpace=wrap;html=1;aspect=fixed;" vertex="1" parent="1">
          <mxGeometry x="250" y="117" width="60" height="60" as="geometry" />
        </mxCell>
        <mxCell id="1PtHdJJ3ti61i-ReC4_p-63" value="&quot;Edited new.txt&quot;" style="ellipse;whiteSpace=wrap;html=1;aspect=fixed;" vertex="1" parent="1">
          <mxGeometry x="340" y="17" width="60" height="60" as="geometry" />
        </mxCell>
        <mxCell id="1PtHdJJ3ti61i-ReC4_p-64" value="main" style="text;strokeColor=none;align=center;fillColor=none;html=1;verticalAlign=middle;whiteSpace=wrap;rounded=0;" vertex="1" parent="1">
          <mxGeometry x="310" y="132" width="60" height="30" as="geometry" />
        </mxCell>
        <mxCell id="1PtHdJJ3ti61i-ReC4_p-65" value="my-branch" style="text;strokeColor=none;align=center;fillColor=none;html=1;verticalAlign=middle;whiteSpace=wrap;rounded=0;fontStyle=1" vertex="1" parent="1">
          <mxGeometry x="400" y="32" width="90" height="30" as="geometry" />
        </mxCell>
        <mxCell id="1PtHdJJ3ti61i-ReC4_p-66" value="&quot;Created new.txt&quot;" style="ellipse;whiteSpace=wrap;html=1;aspect=fixed;" vertex="1" parent="1">
          <mxGeometry x="276" y="-302" width="60" height="60" as="geometry" />
        </mxCell>
        <mxCell id="1PtHdJJ3ti61i-ReC4_p-67" value="main" style="text;strokeColor=none;align=center;fillColor=none;html=1;verticalAlign=middle;whiteSpace=wrap;rounded=0;" vertex="1" parent="1">
          <mxGeometry x="339" y="-278" width="60" height="30" as="geometry" />
        </mxCell>
        <mxCell id="1PtHdJJ3ti61i-ReC4_p-68" value="my-branch" style="text;strokeColor=none;align=center;fillColor=none;html=1;verticalAlign=middle;whiteSpace=wrap;rounded=0;fontStyle=1" vertex="1" parent="1">
          <mxGeometry x="340" y="-298" width="90" height="30" as="geometry" />
        </mxCell>
        <mxCell id="1PtHdJJ3ti61i-ReC4_p-69" style="edgeStyle=orthogonalEdgeStyle;rounded=0;orthogonalLoop=1;jettySize=auto;html=1;exitX=1;exitY=0;exitDx=0;exitDy=0;" edge="1" parent="1" source="1PtHdJJ3ti61i-ReC4_p-70" target="1PtHdJJ3ti61i-ReC4_p-71">
          <mxGeometry relative="1" as="geometry">
            <Array as="points">
              <mxPoint x="296" y="227" />
            </Array>
          </mxGeometry>
        </mxCell>
        <mxCell id="1PtHdJJ3ti61i-ReC4_p-70" value="&quot;Created new.txt&quot;" style="ellipse;whiteSpace=wrap;html=1;aspect=fixed;" vertex="1" parent="1">
          <mxGeometry x="260" y="297" width="60" height="60" as="geometry" />
        </mxCell>
        <mxCell id="1PtHdJJ3ti61i-ReC4_p-71" value="&quot;Edited new.txt&quot;" style="ellipse;whiteSpace=wrap;html=1;aspect=fixed;" vertex="1" parent="1">
          <mxGeometry x="350" y="197" width="60" height="60" as="geometry" />
        </mxCell>
        <mxCell id="1PtHdJJ3ti61i-ReC4_p-72" value="main" style="text;strokeColor=none;align=center;fillColor=none;html=1;verticalAlign=middle;whiteSpace=wrap;rounded=0;fontStyle=1" vertex="1" parent="1">
          <mxGeometry x="320" y="312" width="60" height="30" as="geometry" />
        </mxCell>
        <mxCell id="1PtHdJJ3ti61i-ReC4_p-73" value="my-branch" style="text;strokeColor=none;align=center;fillColor=none;html=1;verticalAlign=middle;whiteSpace=wrap;rounded=0;fontStyle=0" vertex="1" parent="1">
          <mxGeometry x="410" y="212" width="90" height="30" as="geometry" />
        </mxCell>
        <mxCell id="1PtHdJJ3ti61i-ReC4_p-74" value="1." style="text;strokeColor=none;align=center;fillColor=none;html=1;verticalAlign=middle;whiteSpace=wrap;rounded=0;" vertex="1" parent="1">
          <mxGeometry x="170" y="32" width="60" height="30" as="geometry" />
        </mxCell>
        <mxCell id="1PtHdJJ3ti61i-ReC4_p-75" value="2." style="text;strokeColor=none;align=center;fillColor=none;html=1;verticalAlign=middle;whiteSpace=wrap;rounded=0;" vertex="1" parent="1">
          <mxGeometry x="180" y="217" width="60" height="30" as="geometry" />
        </mxCell>
        <mxCell id="1PtHdJJ3ti61i-ReC4_p-76" value="3." style="text;strokeColor=none;align=center;fillColor=none;html=1;verticalAlign=middle;whiteSpace=wrap;rounded=0;" vertex="1" parent="1">
          <mxGeometry x="180" y="407" width="60" height="30" as="geometry" />
        </mxCell>
        <mxCell id="1PtHdJJ3ti61i-ReC4_p-77" style="edgeStyle=orthogonalEdgeStyle;rounded=0;orthogonalLoop=1;jettySize=auto;html=1;exitX=1;exitY=0;exitDx=0;exitDy=0;" edge="1" parent="1" source="1PtHdJJ3ti61i-ReC4_p-78" target="1PtHdJJ3ti61i-ReC4_p-79">
          <mxGeometry relative="1" as="geometry">
            <Array as="points">
              <mxPoint x="312" y="-173" />
            </Array>
          </mxGeometry>
        </mxCell>
        <mxCell id="1PtHdJJ3ti61i-ReC4_p-78" value="&quot;Created new.txt&quot;" style="ellipse;whiteSpace=wrap;html=1;aspect=fixed;" vertex="1" parent="1">
          <mxGeometry x="276" y="-145" width="60" height="60" as="geometry" />
        </mxCell>
        <mxCell id="1PtHdJJ3ti61i-ReC4_p-79" value="&quot;Edited new.txt&quot;" style="ellipse;whiteSpace=wrap;html=1;aspect=fixed;" vertex="1" parent="1">
          <mxGeometry x="366" y="-203" width="60" height="60" as="geometry" />
        </mxCell>
        <mxCell id="1PtHdJJ3ti61i-ReC4_p-80" value="main" style="text;strokeColor=none;align=center;fillColor=none;html=1;verticalAlign=middle;whiteSpace=wrap;rounded=0;" vertex="1" parent="1">
          <mxGeometry x="336" y="-130" width="60" height="30" as="geometry" />
        </mxCell>
        <mxCell id="1PtHdJJ3ti61i-ReC4_p-81" value="my-branch" style="text;strokeColor=none;align=center;fillColor=none;html=1;verticalAlign=middle;whiteSpace=wrap;rounded=0;fontStyle=1" vertex="1" parent="1">
          <mxGeometry x="426" y="-188" width="90" height="30" as="geometry" />
        </mxCell>
        <mxCell id="1PtHdJJ3ti61i-ReC4_p-82" value="1." style="text;strokeColor=none;align=center;fillColor=none;html=1;verticalAlign=middle;whiteSpace=wrap;rounded=0;" vertex="1" parent="1">
          <mxGeometry x="25" y="-427" width="60" height="30" as="geometry" />
        </mxCell>
        <mxCell id="1PtHdJJ3ti61i-ReC4_p-83" value="2." style="text;strokeColor=none;align=center;fillColor=none;html=1;verticalAlign=middle;whiteSpace=wrap;rounded=0;" vertex="1" parent="1">
          <mxGeometry x="29" y="-308" width="60" height="30" as="geometry" />
        </mxCell>
        <mxCell id="1PtHdJJ3ti61i-ReC4_p-84" value="3." style="text;strokeColor=none;align=center;fillColor=none;html=1;verticalAlign=middle;whiteSpace=wrap;rounded=0;" vertex="1" parent="1">
          <mxGeometry x="29" y="-188" width="60" height="30" as="geometry" />
        </mxCell>
        <mxCell id="1PtHdJJ3ti61i-ReC4_p-85" value="Initially, &#39;main&#39; points to the most recent commit." style="text;html=1;align=center;verticalAlign=middle;whiteSpace=wrap;rounded=0;" vertex="1" parent="1">
          <mxGeometry x="72" y="-402" width="185" height="30" as="geometry" />
        </mxCell>
        <mxCell id="1PtHdJJ3ti61i-ReC4_p-87" value="Upon creation, &#39;my-branch&#39; points to the same commit." style="text;html=1;align=center;verticalAlign=middle;whiteSpace=wrap;rounded=0;" vertex="1" parent="1">
          <mxGeometry x="70" y="-287" width="185" height="30" as="geometry" />
        </mxCell>
        <mxCell id="1PtHdJJ3ti61i-ReC4_p-88" value="The new branch updates as new commits are made." style="text;html=1;align=center;verticalAlign=middle;whiteSpace=wrap;rounded=0;" vertex="1" parent="1">
          <mxGeometry x="67" y="-165" width="185" height="30" as="geometry" />
        </mxCell>
      </root>
    </mxGraphModel>
  </diagram>
</mxfile>
